# xmcd CD database file
#
# Track frame offsets:
#	150
#	22242
#	41025
#	60210
#	77827
#	94832
#	114302
#	133132
#	152360
#	170150
#	188355
#	206812
#
# Disc length: 3017 seconds
#
# Revision: 0
# Processed by: cddbd v1.5.1PL0 Copyright (c) Steve Scherf et al.
# Submitted via: CDex 1.51
#
DISCID=9b0bc70c
DTITLE=青木裕子 - Blue
DYEAR=1900
DGENRE=JapanPop
TTITLE0=種子
TTITLE1=愚問
TTITLE2=モノリス
TTITLE3=造花のLily
TTITLE4=爪
TTITLE5=飴と鞭
TTITLE6=化石
TTITLE7=身分詐称
TTITLE8=路上ヘブン
TTITLE9=空地
TTITLE10=Junk Food
TTITLE11=G.I.ジョー
EXTD=
EXTT0=
EXTT1=
EXTT2=
EXTT3=
EXTT4=
EXTT5=
EXTT6=
EXTT7=
EXTT8=
EXTT9=
EXTT10=
EXTT11=
PLAYORDER=
